HIERARCHY
ROOT Hips
{
	OFFSET 0.000000 0.000000 0.000000
	CHANNELS 6 Xposition Yposition Zposition Zrotation Yrotation Xrotation 
	JOINT LHipJoint
	{
		OFFSET 0.000000 0.000000 0.000000
		CHANNELS 3 Zrotation Yrotation Xrotation
		JOINT LeftUpLeg
		{
			OFFSET 1.363060 -1.794630 0.839290
			CHANNELS 3 Zrotation Yrotation Xrotation
			JOINT LeftLeg
			{
				OFFSET 2.448110 -6.726130 0.000000
				CHANNELS 3 Zrotation Yrotation Xrotation
				JOINT LeftFoot
				{
					OFFSET 2.562200 -7.039590 0.000000
					CHANNELS 3 Zrotation Yrotation Xrotation
					JOINT LeftToeBase
					{
						OFFSET 0.157640 -0.433110 2.322550
						CHANNELS 3 Zrotation Yrotation Xrotation
						End Site
						{
							OFFSET 0.000000 0.000000 0.000000
						}
					}
				}
			}
		}
	}
	JOINT RHipJoint
	{
		OFFSET 0.000000 0.000000 0.000000
		CHANNELS 3 Zrotation Yrotation Xrotation
		JOINT RightUpLeg
		{
			OFFSET -1.305520 -1.794630 0.839290
			CHANNELS 3 Zrotation Yrotation Xrotation
			JOINT RightLeg
			{
				OFFSET -2.542530 -6.985550 0.000000
				CHANNELS 3 Zrotation Yrotation Xrotation
				JOINT RightFoot
				{
					OFFSET -2.568260 -7.056230 0.000000
					CHANNELS 3 Zrotation Yrotation Xrotation
					JOINT RightToeBase
					{
						OFFSET -0.164730 -0.452590 2.363150
						CHANNELS 3 Zrotation Yrotation Xrotation
						End Site
						{
							OFFSET 0.000000 0.000000 0.000000
						}
					}
				}
			}
		}
	}
	JOINT LowerBack
	{
		OFFSET 0.000000 0.000000 0.000000
		CHANNELS 3 Zrotation Yrotation Xrotation
		JOINT Spine
		{
			OFFSET 0.028270 2.035590 -0.193380
			CHANNELS 3 Zrotation Yrotation Xrotation
			JOINT Spine1
			{
				OFFSET 0.056720 2.048850 -0.042750
				CHANNELS 3 Zrotation Yrotation Xrotation
				JOINT Neck
				{
					OFFSET 0.000000 0.000000 0.000000
					CHANNELS 3 Zrotation Yrotation Xrotation
					JOINT Neck1
					{
						OFFSET -0.054170 1.746240 0.172020
						CHANNELS 3 Zrotation Yrotation Xrotation
						JOINT Head
						{
							OFFSET 0.104070 1.761360 -0.123970
							CHANNELS 3 Zrotation Yrotation Xrotation
							End Site
							{
								OFFSET 0.000000 0.000000 0.000000
							}
						}
					}
				}
				JOINT LeftShoulder
				{
					OFFSET 0.000000 0.000000 0.000000
					CHANNELS 3 Zrotation Yrotation Xrotation
					JOINT LeftArm
					{
						OFFSET 3.362410 1.200890 -0.311210
						CHANNELS 3 Zrotation Yrotation Xrotation
						JOINT LeftForeArm
						{
							OFFSET 4.983000 -0.000000 -0.000000
							CHANNELS 3 Zrotation Yrotation Xrotation
							JOINT LeftHand
							{
								OFFSET 3.483560 -0.000000 -0.000000
								CHANNELS 3 Zrotation Yrotation Xrotation
								JOINT LeftFingerBase
								{
									OFFSET 0.000000 0.000000 0.000000
									CHANNELS 3 Zrotation Yrotation Xrotation
									JOINT LeftHandIndex1
									{
										OFFSET 0.715260 -0.000000 -0.000000
										CHANNELS 3 Zrotation Yrotation Xrotation
										End Site
										{
											OFFSET 0.000000 0.000000 0.000000
										}
									}
								}
								JOINT LThumb
								{
									OFFSET 0.000000 0.000000 0.000000
									CHANNELS 3 Zrotation Yrotation Xrotation
									End Site
									{
										OFFSET 0.000000 0.000000 0.000000
									}
								}
							}
						}
					}
				}
				JOINT RightShoulder
				{
					OFFSET 0.000000 0.000000 0.000000
					CHANNELS 3 Zrotation Yrotation Xrotation
					JOINT RightArm
					{
						OFFSET -3.136600 1.374050 -0.404650
						CHANNELS 3 Zrotation Yrotation Xrotation
						JOINT RightForeArm
						{
							OFFSET -5.241900 -0.000000 -0.000000
							CHANNELS 3 Zrotation Yrotation Xrotation
							JOINT RightHand
							{
								OFFSET -3.444170 -0.000000 -0.000000
								CHANNELS 3 Zrotation Yrotation Xrotation
								JOINT RightFingerBase
								{
									OFFSET 0.000000 0.000000 0.000000
									CHANNELS 3 Zrotation Yrotation Xrotation
									JOINT RightHandIndex1
									{
										OFFSET -0.622530 -0.000000 -0.000000
										CHANNELS 3 Zrotation Yrotation Xrotation
										End Site
										{
											OFFSET 0.000000 0.000000 0.000000
										}
									}
								}
								JOINT RThumb
								{
									OFFSET 0.000000 0.000000 0.000000
									CHANNELS 3 Zrotation Yrotation Xrotation
									End Site
									{
										OFFSET 0.000000 0.000000 0.000000
									}
								}
							}
						}
					}
				}
			}
		}
	}
}
MOTION
Frames: 8
Frame Time: 0.008333
-0.770299 18.316412 5.725906 -0.306055 -0.229712 0.923758 0.701171 3.686069 3.180563 -13.564197 -7.491624 -5.613687 0.815345 6.651950 21.825866 -0.838612 7.265571 -13.479780 8.774600 -16.660400 -55.307200 -4.311973 -4.140378 1.939711 18.369310 4.560420 8.140344 0.424494 0.968052 1.642702 0.251329 -6.789717 -16.256282 -0.177800 2.716200 -7.489500 4.389285 0.994755 -1.756545 -8.118443 1.032185 17.373960 0.360965 1.110277 -14.904550 -2.968194 -2.704429 -20.731218 7.368516 -3.842886 21.678536 1.442300 -1.165500 7.108800 3.488954 -7.522112 0.531606 -93.163415 11.044726 21.966073 25.788890 -35.008126 -7.184665 0.694808 0.241262 7.113919 15.803398 -28.051409 -7.356900 -7.125000 0.000000 0.000000 -9.033800 0.950000 8.995900 -2.857332 8.821406 2.874407 95.844125 -12.806601 16.486778 -31.619084 39.686469 -9.183332 0.702409 -3.316358 20.156461 -6.397497 -35.870968 4.526800 7.125000 0.000000 0.000000 28.067700 -60.869100 -11.365500 
-0.771279 18.315824 5.728257 -0.241888 -0.272280 1.049037 0.638432 3.654278 3.108860 -13.565135 -7.521219 -5.638604 0.805998 6.668780 21.813999 -0.847267 7.328788 -13.533815 8.765900 -16.654700 -55.276900 -4.387839 -4.115728 1.837656 18.393415 4.580822 8.132515 0.424928 0.963354 1.642549 0.239173 -6.739451 -16.278989 -0.162000 2.593600 -7.149200 4.708708 1.016469 -1.338974 -8.794808 1.085646 16.466961 0.467906 1.128845 -14.817197 -2.926529 -2.724203 -20.533120 7.517585 -3.921205 21.852621 1.457300 -1.181500 7.108200 3.508500 -7.567264 0.613878 -93.053365 11.274283 21.986127 25.808534 -35.000814 -7.190303 0.695610 0.240211 7.129089 15.737449 -28.070651 -7.327500 -7.125000 0.000000 0.000000 -9.074500 0.942300 9.038800 -2.689277 8.842749 2.951478 95.961870 -13.026049 16.391947 -31.665102 39.696145 -9.205861 0.701214 -3.315822 20.142605 -6.421365 -35.926476 4.545600 7.125000 0.000000 0.000000 28.096900 -60.921600 -11.413700 
-0.771671 18.315628 5.730706 -0.273348 -0.304639 1.054710 0.634041 3.654154 3.107406 -13.525628 -7.529301 -5.623167 0.804038 6.667354 21.805543 -0.844312 7.325367 -13.561414 8.754000 -16.646800 -55.235300 -4.393498 -4.113620 1.832701 18.438018 4.608361 8.146368 0.425452 0.963719 1.642672 0.241394 -6.752253 -16.279490 -0.159400 2.572400 -7.090300 4.769663 1.029880 -1.315091 -8.837833 1.107094 16.424549 0.455279 1.133810 -14.799886 -2.874095 -2.693348 -20.372397 7.515257 -3.884603 21.703795 1.453800 -1.168400 7.060100 3.507416 -7.571877 0.611580 -93.026566 11.316159 22.020687 25.841910 -35.030207 -7.205005 0.695096 0.242858 7.066597 15.696157 -28.035795 -7.299200 -7.125000 0.000000 0.000000 -9.095700 0.982000 9.053900 -2.683695 8.845357 2.948847 95.994347 -13.039501 16.369727 -31.687311 39.718884 -9.220445 0.702052 -3.317073 20.116332 -6.420091 -35.989900 4.552500 7.125000 0.000000 0.000000 28.156700 -60.974700 -11.476000 
-0.772161 18.316216 5.733646 -0.281811 -0.295373 1.095472 0.633038 3.647126 3.091501 -13.507646 -7.499470 -5.658294 0.805797 6.670873 21.808149 -0.833930 7.274422 -13.529572 8.754000 -16.646800 -55.235500 -4.397832 -4.110503 1.817014 18.455895 4.606104 8.119059 0.426279 0.961946 1.641890 0.248566 -6.794177 -16.281788 -0.164700 2.614900 -7.208300 4.778888 1.024169 -1.265575 -8.856811 1.089763 16.230479 0.450875 1.128209 -14.730533 -3.024638 -2.657235 -20.081885 7.826489 -3.860446 21.422802 1.531800 -1.145000 6.976300 3.504294 -7.590402 0.615749 -93.031529 11.395399 22.014163 25.878062 -35.059168 -7.221394 0.694707 0.247906 6.993628 15.717246 -27.960823 -7.293600 -7.125000 0.000000 0.000000 -9.077100 1.049700 9.023900 -2.642784 8.849260 2.952923 95.986377 -13.110084 16.389939 -31.728503 39.733100 -9.233895 0.706570 -3.313878 20.075522 -6.406775 -35.952065 4.541500 7.125000 0.000000 0.000000 28.136700 -60.942000 -11.445100 
-0.772945 18.317196 5.736291 -0.293279 -0.249558 1.161221 0.643581 3.639930 3.075060 -13.495543 -7.497289 -5.718374 0.807756 6.674330 21.812972 -0.827748 7.236296 -13.484019 8.754700 -16.647200 -55.237900 -4.390190 -4.108658 1.806477 18.464609 4.576372 8.060997 0.426719 0.959464 1.640740 0.256896 -6.836696 -16.272283 -0.171800 2.670200 -7.361900 4.726194 0.999973 -1.257289 -8.768221 1.038662 16.061122 0.437229 1.110355 -14.662101 -3.208681 -2.650513 -19.939585 8.110726 -3.868956 21.307292 1.605600 -1.134400 6.941800 3.488067 -7.603613 0.622438 -93.078839 11.428012 21.915083 25.882003 -35.058135 -7.222621 0.694149 0.250473 7.036310 15.773514 -27.884843 -7.305400 -7.125000 0.000000 0.000000 -9.037300 1.113600 8.972900 -2.610336 8.854191 2.961928 95.943909 -13.163522 16.451700 -31.765523 39.740199 -9.243112 0.712197 -3.309880 20.023132 -6.384274 -35.895824 4.523400 7.125000 0.000000 0.000000 28.109700 -60.892300 -11.399700 
-0.772847 18.317294 5.738839 -0.314681 -0.246007 1.194528 0.648585 3.640219 3.075818 -13.476410 -7.513159 -5.744943 0.808874 6.676779 21.819461 -0.825494 7.226250 -13.482242 8.748900 -16.643400 -55.217600 -4.385636 -4.108666 1.809238 18.487982 4.580533 8.032584 0.427382 0.959454 1.640335 0.265318 -6.879021 -16.265648 -0.180600 2.737400 -7.548400 4.728634 0.994919 -1.301148 -8.738439 1.029448 16.090428 0.451813 1.105421 -14.671605 -2.954620 -2.663330 -20.147259 7.643909 -3.852717 21.591357 1.491400 -1.149700 7.012100 3.461770 -7.592843 0.629061 -93.112784 11.396931 21.834275 25.865676 -35.039276 -7.212736 0.693041 0.249553 7.110888 15.754302 -27.840805 -7.286000 -7.125000 0.000000 0.000000 -9.044100 1.161200 8.972200 -2.636989 8.864669 2.973571 95.953974 -13.146368 16.455185 -31.767415 39.748464 -9.242634 0.713817 -3.309928 20.037111 -6.359370 -35.857800 4.506500 7.125000 0.000000 0.000000 28.098600 -60.855200 -11.369800 
-0.772063 18.317098 5.742562 -0.336747 -0.279916 1.175405 0.645563 3.645526 3.085150 -13.455625 -7.467400 -5.732333 0.810456 6.677582 21.824661 -0.828622 7.233723 -13.467075 8.766100 -16.654800 -55.277700 -4.388672 -4.109524 1.816327 18.512786 4.605946 8.062303 0.427733 0.961109 1.640913 0.265112 -6.881711 -16.273645 -0.183800 2.761100 -7.614400 4.787692 1.007501 -1.332262 -8.780799 1.056367 16.195441 0.459604 1.111404 -14.706620 -2.680107 -2.668497 -20.300500 7.187136 -3.827856 21.778053 1.376200 -1.163900 7.058600 3.454398 -7.582166 0.627938 -93.114735 11.381473 21.832157 25.871357 -35.045016 -7.212742 0.691489 0.248711 7.112677 15.648670 -27.818246 -7.228100 -7.125000 0.000000 0.000000 -9.103500 1.202000 9.025900 -2.669910 8.869635 2.974963 95.981011 -13.122664 16.441563 -31.759141 39.753116 -9.237760 0.714280 -3.310418 20.054986 -6.346701 -35.814034 4.495000 7.125000 0.000000 0.000000 28.069400 -60.815200 -11.330000 
-0.771769 18.316706 5.746089 -0.340953 -0.297029 1.143015 0.646462 3.650589 3.094043 -13.454488 -7.401511 -5.708107 0.811456 6.673394 21.819640 -0.829806 7.229188 -13.438671 8.783600 -16.666500 -55.338800 -4.386873 -4.112034 1.825713 18.511013 4.612711 8.102766 0.427226 0.962199 1.641526 0.258611 -6.847462 -16.277385 -0.180100 2.733300 -7.537100 4.788774 1.015215 -1.357587 -8.764962 1.070108 16.291335 0.448508 1.115628 -14.718670 -2.701148 -2.666385 -20.246518 7.227415 -3.826773 21.706457 1.386400 -1.163300 7.041100 3.462222 -7.581683 0.617524 -93.122265 11.392039 21.850733 25.903945 -35.079348 -7.226199 0.689669 0.249664 7.093822 15.552861 -27.784522 -7.173300 -7.125000 0.000000 0.000000 -9.156000 1.250800 9.071300 -2.680892 8.866260 2.964246 95.969349 -13.117255 16.447832 -31.767835 39.759297 -9.238605 0.719232 -3.309563 20.018544 -6.300903 -35.786930 4.468200 7.125000 0.000000 0.000000 28.090600 -60.783500 -11.318000 
